3DGaitModel2392_states
version=1
nRows=4
nColumns=251
inDegrees=yes

# SIMM Motion File Header:
name 3DGaitModel2392_states
datacolumns 251
datarows 4
otherdata 1
range 0.06664917 0.07310309
endheader
time	pelvis_tilt	pelvis_list	pelvis_rotation	pelvis_tx	pelvis_ty	pelvis_tz	hip_flexion_r	hip_adduction_r	hip_rotation_r	knee_angle_r	knee_adduction_r	knee_rotation_r	knee_anterior_posterior_r	knee_inferior_superior_r	knee_medial_lateral_r	ankle_angle_r	subtalar_angle_r	mtp_angle_r	hip_flexion_l	hip_adduction_l	hip_rotation_l	knee_angle_l	knee_adduction_l	knee_rotation_l	knee_anterior_posterior_l	knee_inferior_superior_l	knee_medial_lateral_l	ankle_angle_l	subtalar_angle_l	mtp_angle_l	lumbar_extension	lumbar_bending	lumbar_rotation	pelvis_tilt_u	pelvis_list_u	pelvis_rotation_u	pelvis_tx_u	pelvis_ty_u	pelvis_tz_u	hip_flexion_r_u	hip_adduction_r_u	hip_rotation_r_u	knee_angle_r_u	knee_adduction_r_u	knee_rotation_r_u	knee_anterior_posterior_r_u	knee_inferior_superior_r_u	knee_medial_lateral_r_u	ankle_angle_r_u	subtalar_angle_r_u	mtp_angle_r_u	hip_flexion_l_u	hip_adduction_l_u	hip_rotation_l_u	knee_angle_l_u	knee_adduction_l_u	knee_rotation_l_u	knee_anterior_posterior_l_u	knee_inferior_superior_l_u	knee_medial_lateral_l_u	ankle_angle_l_u	subtalar_angle_l_u	mtp_angle_l_u	lumbar_extension_u	lumbar_bending_u	lumbar_rotation_u	glut_med1_r.activation	glut_med1_r.fiber_length	glut_med2_r.activation	glut_med2_r.fiber_length	glut_med3_r.activation	glut_med3_r.fiber_length	glut_min1_r.activation	glut_min1_r.fiber_length	glut_min2_r.activation	glut_min2_r.fiber_length	glut_min3_r.activation	glut_min3_r.fiber_length	semimem_r.activation	semimem_r.fiber_length	semiten_r.activation	semiten_r.fiber_length	bifemlh_r.activation	bifemlh_r.fiber_length	bifemsh_r.activation	bifemsh_r.fiber_length	sar_r.activation	sar_r.fiber_length	add_long_r.activation	add_long_r.fiber_length	add_brev_r.activation	add_brev_r.fiber_length	add_mag1_r.activation	add_mag1_r.fiber_length	add_mag2_r.activation	add_mag2_r.fiber_length	add_mag3_r.activation	add_mag3_r.fiber_length	tfl_r.activation	tfl_r.fiber_length	pect_r.activation	pect_r.fiber_length	grac_r.activation	grac_r.fiber_length	glut_max1_r.activation	glut_max1_r.fiber_length	glut_max2_r.activation	glut_max2_r.fiber_length	glut_max3_r.activation	glut_max3_r.fiber_length	iliacus_r.activation	iliacus_r.fiber_length	psoas_r.activation	psoas_r.fiber_length	quad_fem_r.activation	quad_fem_r.fiber_length	gem_r.activation	gem_r.fiber_length	peri_r.activation	peri_r.fiber_length	rect_fem_r.activation	rect_fem_r.fiber_length	vas_med_r.activation	vas_med_r.fiber_length	vas_int_r.activation	vas_int_r.fiber_length	vas_lat_r.activation	vas_lat_r.fiber_length	med_gas_r.activation	med_gas_r.fiber_length	lat_gas_r.activation	lat_gas_r.fiber_length	soleus_r.activation	soleus_r.fiber_length	tib_post_r.activation	tib_post_r.fiber_length	flex_dig_r.activation	flex_dig_r.fiber_length	flex_hal_r.activation	flex_hal_r.fiber_length	tib_ant_r.activation	tib_ant_r.fiber_length	per_brev_r.activation	per_brev_r.fiber_length	per_long_r.activation	per_long_r.fiber_length	per_tert_r.activation	per_tert_r.fiber_length	ext_dig_r.activation	ext_dig_r.fiber_length	ext_hal_r.activation	ext_hal_r.fiber_length	glut_med1_l.activation	glut_med1_l.fiber_length	glut_med2_l.activation	glut_med2_l.fiber_length	glut_med3_l.activation	glut_med3_l.fiber_length	glut_min1_l.activation	glut_min1_l.fiber_length	glut_min2_l.activation	glut_min2_l.fiber_length	glut_min3_l.activation	glut_min3_l.fiber_length	semimem_l.activation	semimem_l.fiber_length	semiten_l.activation	semiten_l.fiber_length	bifemlh_l.activation	bifemlh_l.fiber_length	bifemsh_l.activation	bifemsh_l.fiber_length	sar_l.activation	sar_l.fiber_length	add_long_l.activation	add_long_l.fiber_length	add_brev_l.activation	add_brev_l.fiber_length	add_mag1_l.activation	add_mag1_l.fiber_length	add_mag2_l.activation	add_mag2_l.fiber_length	add_mag3_l.activation	add_mag3_l.fiber_length	tfl_l.activation	tfl_l.fiber_length	pect_l.activation	pect_l.fiber_length	grac_l.activation	grac_l.fiber_length	glut_max1_l.activation	glut_max1_l.fiber_length	glut_max2_l.activation	glut_max2_l.fiber_length	glut_max3_l.activation	glut_max3_l.fiber_length	iliacus_l.activation	iliacus_l.fiber_length	psoas_l.activation	psoas_l.fiber_length	quad_fem_l.activation	quad_fem_l.fiber_length	gem_l.activation	gem_l.fiber_length	peri_l.activation	peri_l.fiber_length	rect_fem_l.activation	rect_fem_l.fiber_length	vas_med_l.activation	vas_med_l.fiber_length	vas_int_l.activation	vas_int_l.fiber_length	vas_lat_l.activation	vas_lat_l.fiber_length	med_gas_l.activation	med_gas_l.fiber_length	lat_gas_l.activation	lat_gas_l.fiber_length	soleus_l.activation	soleus_l.fiber_length	tib_post_l.activation	tib_post_l.fiber_length	flex_dig_l.activation	flex_dig_l.fiber_length	flex_hal_l.activation	flex_hal_l.fiber_length	tib_ant_l.activation	tib_ant_l.fiber_length	per_brev_l.activation	per_brev_l.fiber_length	per_long_l.activation	per_long_l.fiber_length	per_tert_l.activation	per_tert_l.fiber_length	ext_dig_l.activation	ext_dig_l.fiber_length	ext_hal_l.activation	ext_hal_l.fiber_length	ercspn_r.activation	ercspn_r.fiber_length	ercspn_l.activation	ercspn_l.fiber_length	intobl_r.activation	intobl_r.fiber_length	intobl_l.activation	intobl_l.fiber_length	extobl_r.activation	extobl_r.fiber_length	extobl_l.activation	extobl_l.fiber_length
      0.06664917	     -0.00000000	     -0.00000000	     -0.00000000	     -0.00206937	     -0.00000000	      0.00034262	      3.16593637	      1.33349986	     -1.19067687	     -9.46193592	     -5.66330340	      1.04900643	      0.00574373	     -0.35228924	      0.00114575	    -13.51409921	      3.95498612	    111.66980595	      0.97550396	     -0.18600802	      0.85758068	     -3.65556558	      8.68270922	      4.20632915	      0.00789946	     -0.39393096	      0.00644354	     -8.22826157	      2.84713586	     66.48699226	      0.00000000	      0.00000000	     -0.00000000	     -0.00000000	     -0.00000000	     -0.00000000	     -0.04265013	     -0.00000000	      0.00512601	     60.16100286	     43.81187822	     -7.02437487	   -360.49141517	   -241.89313861	     68.97736184	      1.01434928	     -0.23627906	      0.72725663	    510.53711434	   -126.73319981	   2836.10036365	     17.47055964	     20.12350831	     -7.58895016	    -22.47865779	    185.26065565	     -3.92446447	      0.11780753	      0.07832040	     -0.25067454	   -180.69983074	    146.77288151	   1311.09633764	      0.00000000	     -0.00000000	      0.00000000	      0.02589201	      0.04909698	      0.02589201	      0.08006249	      0.02589201	      0.06484057	      0.02589201	      0.06953091	      0.02589201	      0.05790950	      0.02589201	      0.03648545	      0.98315348	      0.04962877	      0.98315348	      0.15410204	      0.98315348	      0.04235267	      0.98315348	      0.12637131	      0.98315348	      0.41851900	      0.02589201	      0.10336360	      0.02589201	      0.11317622	      0.02589201	      0.07756557	      0.02589201	      0.07766187	      0.02589201	      0.09110741	      0.02589201	      0.08848699	      0.02589201	      0.08153874	      0.98315348	      0.26135138	      0.02589201	      0.07791860	      0.02589201	      0.08461131	      0.02589201	      0.09238597	      0.02589201	      0.10492771	      0.02589201	      0.09910601	      0.02589201	      0.04955549	      0.02589201	      0.02420562	      0.02589201	      0.02386104	      0.02589201	      0.08344940	      0.02589201	      0.07875888	      0.02589201	      0.07756557	      0.02589201	      0.07555099	      0.98315348	      0.04264547	      0.98315348	      0.04515525	      0.02589201	      0.04588623	      0.02589201	      0.02990518	      0.02589201	      0.03237763	      0.02589201	      0.04091911	      0.02589201	      0.08975729	      0.02589201	      0.05002755	      0.02589201	      0.04939157	      0.02589201	      0.08817546	      0.02589201	      0.09770542	      0.02589201	      0.10234441	      0.02589201	      0.04909698	      0.02589201	      0.07817054	      0.02589201	      0.06069907	      0.02589201	      0.06709417	      0.02589201	      0.05623932	      0.02589201	      0.03517073	      0.02589201	      0.07253965	      0.02589201	      0.20613675	      0.02589201	      0.08722531	      0.02589201	      0.16414356	      0.02589201	      0.46879689	      0.02589201	      0.10618447	      0.02589201	      0.11520238	      0.02589201	      0.07756557	      0.02589201	      0.07766187	      0.02589201	      0.09019791	      0.02589201	      0.10383817	      0.02589201	      0.08153874	      0.02589201	      0.31297933	      0.02589201	      0.07632365	      0.02589201	      0.08301316	      0.02589201	      0.09172943	      0.02589201	      0.10624830	      0.02589201	      0.10031463	      0.02589201	      0.04955549	      0.02589201	      0.02559717	      0.02589201	      0.02386104	      0.02589201	      0.10041786	      0.02589201	      0.07875888	      0.02589201	      0.07756557	      0.02589201	      0.07555099	      0.02589201	      0.05504912	      0.02589201	      0.05869166	      0.02589201	      0.04588623	      0.02589201	      0.03190147	      0.02589201	      0.03340427	      0.02589201	      0.04153597	      0.02589201	      0.08465021	      0.02589201	      0.04991589	      0.02589201	      0.05016614	      0.02589201	      0.08444554	      0.02589201	      0.09454441	      0.02589201	      0.10038457	      0.02589201	      0.11952103	      0.02589201	      0.11952103	      0.02589201	      0.09844355	      0.02589201	      0.09844355	      0.02589201	      0.13283084	      0.02589201	      0.13283084
      0.06666667	     -0.00000000	     -0.00000000	     -0.00000000	     -0.00207012	     -0.00000000	      0.00034271	      3.16699057	      1.33426461	     -1.19079963	     -9.46824234	     -5.66754070	      1.05021051	      0.00576145	     -0.35229337	      0.00115844	    -13.50516914	      3.95278372	    111.71942471	      0.97580965	     -0.18565593	      0.85744757	     -3.65595885	      8.68595088	      4.20626068	      0.00790152	     -0.39392959	      0.00643916	     -8.23142228	      2.84970650	     66.50992668	      0.00000000	      0.00000000	     -0.00000000	     -0.00000000	     -0.00000000	     -0.00000000	     -0.04267603	     -0.00000000	      0.00510737	     60.34390430	     43.63460225	     -6.99553512	   -360.46519969	   -242.51159982	     68.68319684	      1.01164420	     -0.23631393	      0.72351584	    510.36791515	   -125.10231025	   2836.26655162	     17.47496944	     20.12606557	     -7.62740340	    -22.47943036	    185.32420019	     -3.90410071	      0.11780838	      0.07833232	     -0.25064773	   -180.62858913	    147.09963389	   1310.75495766	      0.00000000	     -0.00000000	      0.00000000	      0.02588826	      0.04909446	      0.02588826	      0.08006242	      0.02588826	      0.06483729	      0.02588826	      0.06952679	      0.02588826	      0.05790931	      0.02588826	      0.03648469	      0.98316840	      0.04961495	      0.98316840	      0.15410020	      0.98316840	      0.04234924	      0.98316840	      0.12636865	      0.98316840	      0.41852000	      0.02588826	      0.10336201	      0.02588826	      0.11317893	      0.02588826	      0.07756147	      0.02588826	      0.07765617	      0.02588826	      0.09110783	      0.02588826	      0.08848251	      0.02588826	      0.08153402	      0.98316840	      0.26134975	      0.02588826	      0.07791990	      0.02588826	      0.08461243	      0.02588826	      0.09238637	      0.02588826	      0.10492709	      0.02588826	      0.09910535	      0.02588826	      0.04955294	      0.02588826	      0.02420556	      0.02588826	      0.02385982	      0.02588826	      0.08344403	      0.02588826	      0.07875468	      0.02588826	      0.07756147	      0.02588826	      0.07554703	      0.98316840	      0.04263511	      0.98316840	      0.04514420	      0.02588826	      0.04588388	      0.02588826	      0.02990519	      0.02588826	      0.03237810	      0.02588826	      0.04092425	      0.02588826	      0.08975319	      0.02588826	      0.05002714	      0.02588826	      0.04939141	      0.02588826	      0.08815790	      0.02588826	      0.09770062	      0.02588826	      0.10233917	      0.02588826	      0.04909446	      0.02588826	      0.07817088	      0.02588826	      0.06069923	      0.02588826	      0.06709449	      0.02588826	      0.05623963	      0.02588826	      0.03517054	      0.02588826	      0.07253588	      0.02588826	      0.20613562	      0.02588826	      0.08722439	      0.02588826	      0.16414204	      0.02588826	      0.46879586	      0.02588826	      0.10618392	      0.02588826	      0.11520195	      0.02588826	      0.07756147	      0.02588826	      0.07765617	      0.02588826	      0.09019806	      0.02588826	      0.10383625	      0.02588826	      0.08153402	      0.02588826	      0.31297757	      0.02588826	      0.07632376	      0.02588826	      0.08301358	      0.02588826	      0.09172962	      0.02588826	      0.10624811	      0.02588826	      0.10031449	      0.02588826	      0.04955294	      0.02588826	      0.02559716	      0.02588826	      0.02385982	      0.02588826	      0.10041676	      0.02588826	      0.07875468	      0.02588826	      0.07756147	      0.02588826	      0.07554703	      0.02588826	      0.05504629	      0.02588826	      0.05868865	      0.02588826	      0.04588388	      0.02588826	      0.03190121	      0.02588826	      0.03340441	      0.02588826	      0.04153603	      0.02588826	      0.08465220	      0.02588826	      0.04991564	      0.02588826	      0.05016562	      0.02588826	      0.08444503	      0.02588826	      0.09454366	      0.02588826	      0.10038320	      0.02588826	      0.11952105	      0.02588826	      0.11952105	      0.02588826	      0.09844361	      0.02588826	      0.09844361	      0.02588826	      0.13283091	      0.02588826	      0.13283091
      0.06940539	     -0.00000000	     -0.00000000	     -0.00000000	     -0.00219322	     -0.00000000	      0.00035209	      3.37807132	      1.41233733	     -1.20566153	    -10.43797458	     -6.47027274	      1.16864067	      0.00781586	     -0.35285378	      0.00226634	    -12.19601881	      3.96940069	    119.54000761	      1.02481525	     -0.12994194	      0.82822081	     -3.71808194	      9.20268541	      4.19912882	      0.00822274	     -0.39371255	      0.00575665	     -8.71215495	      3.30944812	     70.03749371	      0.00000000	      0.00000000	     -0.00000000	     -0.00000000	     -0.00000000	     -0.00000000	     -0.04735662	     -0.00000000	      0.00199083	     95.37540506	     13.78891591	     -3.41879862	   -344.18750218	   -345.71318405	     16.29100585	      0.45476463	     -0.14178537	      0.08267962	    428.66800142	    136.09988328	   2878.88707003	     18.35874295	     20.47381448	    -13.72228721	    -23.05290944	    190.40920349	     -1.71356608	      0.11638099	      0.08007072	     -0.24821666	   -170.68444015	    183.80334692	   1269.21961585	      0.00000000	     -0.00000000	      0.00000000	      0.02531324	      0.04870002	      0.02531324	      0.08009967	      0.02531324	      0.06435498	      0.02531324	      0.07431219	      0.02531324	      0.05792996	      0.02531324	      0.03642901	      0.98534636	      0.04744980	      0.98534636	      0.15388989	      0.98534636	      0.04197465	      0.98534636	      0.12602349	      0.98534636	      0.41881834	      0.02531324	      0.10312316	      0.02531324	      0.13498650	      0.02531324	      0.07692005	      0.02531324	      0.07676408	      0.02531324	      0.09119053	      0.02531324	      0.08778211	      0.02531324	      0.08079676	      0.98534636	      0.26120177	      0.02531324	      0.07813474	      0.02531324	      0.08481921	      0.02531324	      0.09250524	      0.02531324	      0.10481857	      0.02531324	      0.09899780	      0.02531324	      0.04915482	      0.02531324	      0.02419414	      0.02531324	      0.02366813	      0.02531324	      0.08260355	      0.02531324	      0.07809852	      0.02531324	      0.07692005	      0.02531324	      0.07492773	      0.98534636	      0.04101125	      0.98534636	      0.04341208	      0.02531324	      0.04551524	      0.02531324	      0.02991169	      0.02531324	      0.03249525	      0.02531324	      0.04156280	      0.02531324	      0.08904391	      0.02531324	      0.04998115	      0.02531324	      0.04937567	      0.02531324	      0.08697088	      0.02531324	      0.09694861	      0.02531324	      0.10152081	      0.02531324	      0.04870002	      0.02531324	      0.07823008	      0.02531324	      0.06073151	      0.02531324	      0.06715092	      0.02531324	      0.05629047	      0.02531324	      0.03515480	      0.02531324	      0.07194607	      0.02531324	      0.20596098	      0.02531324	      0.08707621	      0.02531324	      0.16389946	      0.02531324	      0.46863656	      0.02531324	      0.10609817	      0.02531324	      0.11513409	      0.02531324	      0.07692005	      0.02531324	      0.07676408	      0.02531324	      0.09022232	      0.02531324	      0.10353632	      0.02531324	      0.08079676	      0.02531324	      0.31270390	      0.02531324	      0.07635123	      0.02531324	      0.08307659	      0.02531324	      0.09175704	      0.02531324	      0.10621950	      0.02531324	      0.10029309	      0.02531324	      0.04915482	      0.02531324	      0.02559184	      0.02531324	      0.02366813	      0.02531324	      0.10024082	      0.02531324	      0.07809852	      0.02531324	      0.07692005	      0.02531324	      0.07492773	      0.02531324	      0.05460393	      0.02531324	      0.05821680	      0.02531324	      0.04551524	      0.02531324	      0.03185172	      0.02531324	      0.03342322	      0.02531324	      0.04154560	      0.02531324	      0.08492416	      0.02531324	      0.04989547	      0.02531324	      0.05009913	      0.02531324	      0.08480044	      0.02531324	      0.09444087	      0.02531324	      0.10016878	      0.02531324	      0.11952384	      0.02531324	      0.11952384	      0.02531324	      0.09845352	      0.02531324	      0.09845352	      0.02531324	      0.13284036	      0.02531324	      0.13284036
      0.07310309	     -0.00000000	     -0.00000000	     -0.00000000	     -0.00237789	     -0.00000000	      0.00035321	      3.81699712	      1.40338728	     -1.22218673	    -11.64550568	     -7.95977069	      1.11956934	      0.00804209	     -0.35287910	      0.00127989	    -10.95146385	      4.96075027	    130.30902202	      1.09461592	     -0.05409098	      0.76258996	     -3.80502212	      9.90267433	      4.19410757	      0.00864494	     -0.39341229	      0.00484017	     -9.32638768	      4.02663080	     74.68064778	      0.00000000	      0.00000000	     -0.00000000	     -0.00000000	     -0.00000000	     -0.00000000	     -0.05207743	     -0.00000000	     -0.00080840	    139.30681812	    -14.88294245	     -5.28979821	   -311.13152550	   -448.52717148	    -36.32347098	     -0.28339745	      0.12177428	     -0.53838385	    248.85897407	    364.40634184	   2938.39600059	     19.31008483	     20.42379606	    -21.89148800	    -24.02372188	    185.80015608	     -1.59717810	      0.11169870	      0.08216232	     -0.24829394	   -162.22812458	    196.88512693	   1248.72686814	      0.00000000	     -0.00000000	      0.00000000	      0.02457107	      0.04816846	      0.02457107	      0.08037495	      0.02457107	      0.06371312	      0.02457107	      0.07216574	      0.02457107	      0.05798327	      0.02457107	      0.03642527	      0.98784267	      0.04452130	      0.98784267	      0.15370997	      0.98784267	      0.04156047	      0.98784267	      0.12550391	      0.98784267	      0.41891927	      0.02457107	      0.10283778	      0.02457107	      0.13340655	      0.02457107	      0.07605563	      0.02457107	      0.07556184	      0.02457107	      0.09146529	      0.02457107	      0.08683820	      0.02457107	      0.07980318	      0.98784267	      0.26100583	      0.02457107	      0.07847372	      0.02457107	      0.08520605	      0.02457107	      0.09425327	      0.02457107	      0.10459845	      0.02457107	      0.09881142	      0.02457107	      0.04861829	      0.02457107	      0.02417969	      0.02457107	      0.02340980	      0.02457107	      0.08147086	      0.02457107	      0.07721423	      0.02457107	      0.07605563	      0.02457107	      0.07409312	      0.98784267	      0.03881487	      0.98784267	      0.04106927	      0.02457107	      0.04501845	      0.02457107	      0.02992970	      0.02457107	      0.03256357	      0.02457107	      0.04185112	      0.02457107	      0.08807020	      0.02457107	      0.05020052	      0.02457107	      0.04940163	      0.02457107	      0.08649188	      0.02457107	      0.09602076	      0.02457107	      0.10041793	      0.02457107	      0.04816846	      0.02457107	      0.07831463	      0.02457107	      0.06077998	      0.02457107	      0.06760904	      0.02457107	      0.05636417	      0.02457107	      0.03515891	      0.02457107	      0.07115120	      0.02457107	      0.20573010	      0.02457107	      0.08686268	      0.02457107	      0.16356107	      0.02457107	      0.46842742	      0.02457107	      0.10598234	      0.02457107	      0.11503855	      0.02457107	      0.07605563	      0.02457107	      0.07556184	      0.02457107	      0.09025709	      0.02457107	      0.10313399	      0.02457107	      0.07980318	      0.02457107	      0.31233362	      0.02457107	      0.07641235	      0.02457107	      0.08315449	      0.02457107	      0.09178605	      0.02457107	      0.10618146	      0.02457107	      0.10026448	      0.02457107	      0.04861829	      0.02457107	      0.02557089	      0.02457107	      0.02340980	      0.02457107	      0.09999267	      0.02457107	      0.07721423	      0.02457107	      0.07605563	      0.02457107	      0.07409312	      0.02457107	      0.05400778	      0.02457107	      0.05758090	      0.02457107	      0.04501845	      0.02457107	      0.03175210	      0.02457107	      0.03343837	      0.02457107	      0.04155739	      0.02457107	      0.08521202	      0.02457107	      0.04991546	      0.02457107	      0.05005054	      0.02457107	      0.08496281	      0.02457107	      0.09434227	      0.02457107	      0.09988113	      0.02457107	      0.11952750	      0.02457107	      0.11952750	      0.02457107	      0.09846659	      0.02457107	      0.09846659	      0.02457107	      0.13285268	      0.02457107	      0.13285268
